<svg aria-hidden="true" style="position: absolute; width: 0; height: 0; overflow: hidden;" version="1.1" xmlns="http://www.w3.org/2000/svg" xmlns:xlink="http://www.w3.org/1999/xlink">
<defs>
<symbol id="icon-flag-2" viewBox="0 0 42 32">
<title>flag-2</title>
<path stroke-width="3.2" stroke-miterlimit="4" stroke-linecap="butt" stroke-linejoin="miter" d="M1.6 1.6h38.646v28.8h-38.646v-28.8z"></path>
<path stroke-width="2.9538" stroke-miterlimit="4" stroke-linecap="square" stroke-linejoin="miter" d="M38.154 3.692l-34.462 24.615"></path>
<path stroke-width="2.9538" stroke-miterlimit="4" stroke-linecap="square" stroke-linejoin="miter" d="M3.692 3.692l34.462 24.615"></path>
<path stroke-width="3.6923" stroke-miterlimit="4" stroke-linecap="square" stroke-linejoin="miter" d="M3.692 16h34.462"></path>
<path stroke-width="3.6923" stroke-miterlimit="4" stroke-linecap="square" stroke-linejoin="miter" d="M20.923 3.692v24.615"></path>
</symbol>
<symbol id="icon-fb" viewBox="0 0 32 32">
<title>fb</title>
<path d="M29.366 0.305h-27.645c-0.951 0-1.72 0.769-1.72 1.72v27.645c0 0.951 0.769 1.72 1.72 1.72h14.875v-12.042h-4.048v-4.695h4.048v-3.461c0-4.007 2.469-6.193 6.051-6.193 1.7 0 3.177 0.121 3.602 0.182v4.189l-2.469 0.020c-1.963 0-2.327 0.911-2.327 2.267v2.995h4.635l-0.607 4.695h-4.027v12.042h7.913c0.951 0 1.72-0.769 1.72-1.72v-27.645c0-0.951-0.769-1.72-1.72-1.72z"></path>
</symbol>
<symbol id="icon-gp" viewBox="0 0 32 32">
<title>gp</title>
<path d="M18.558 16.030c0-0.506-0.061-0.911-0.121-1.295h-7.326v2.671h4.392c-0.162 1.133-1.315 3.339-4.392 3.339-2.671 0-4.837-2.186-4.837-4.898s2.165-4.898 4.837-4.898c1.498 0 2.51 0.627 3.096 1.194l2.105-2.044c-1.356-1.255-3.117-2.024-5.201-2.024-4.311 0-7.771 3.481-7.771 7.771s3.461 7.771 7.771 7.771c4.473 0 7.448-3.157 7.448-7.589zM25.541 16.961h2.206v-2.226h-2.206v-2.226h-2.226v2.226h-2.226v2.226h2.226v2.226h2.226v-2.226zM31.086 6.133v19.429c0 3.218-2.611 5.829-5.829 5.829h-19.429c-3.218 0-5.829-2.611-5.829-5.829v-19.429c0-3.218 2.611-5.829 5.829-5.829h19.429c3.218 0 5.829 2.611 5.829 5.829z"></path>
</symbol>
<symbol id="icon-in" viewBox="0 0 32 32">
<title>in</title>
<path d="M20.724 15.848c0-2.854-2.327-5.181-5.181-5.181s-5.181 2.327-5.181 5.181c0 2.854 2.327 5.181 5.181 5.181s5.181-2.327 5.181-5.181zM23.517 15.848c0 4.412-3.562 7.974-7.974 7.974s-7.974-3.562-7.974-7.974c0-4.412 3.562-7.974 7.974-7.974s7.974 3.562 7.974 7.974zM25.702 7.55c0 1.032-0.83 1.862-1.862 1.862s-1.862-0.83-1.862-1.862c0-1.032 0.83-1.862 1.862-1.862s1.862 0.83 1.862 1.862zM15.543 3.098c-2.267 0-7.124-0.182-9.168 0.627-0.708 0.283-1.235 0.627-1.781 1.174s-0.89 1.073-1.174 1.781c-0.81 2.044-0.627 6.901-0.627 9.168s-0.182 7.124 0.627 9.168c0.283 0.708 0.627 1.235 1.174 1.781s1.073 0.89 1.781 1.174c2.044 0.81 6.901 0.627 9.168 0.627s7.124 0.182 9.168-0.627c0.708-0.283 1.235-0.627 1.781-1.174s0.89-1.073 1.174-1.781c0.81-2.044 0.627-6.901 0.627-9.168s0.182-7.124-0.627-9.168c-0.283-0.708-0.627-1.235-1.174-1.781s-1.073-0.89-1.781-1.174c-2.044-0.81-6.901-0.627-9.168-0.627zM31.086 15.848c0 2.145 0.020 4.27-0.101 6.415-0.121 2.489-0.688 4.695-2.51 6.517s-4.027 2.388-6.517 2.51c-2.145 0.121-4.27 0.101-6.415 0.101s-4.27 0.020-6.415-0.101c-2.489-0.121-4.695-0.688-6.517-2.51s-2.388-4.027-2.51-6.517c-0.121-2.145-0.101-4.27-0.101-6.415s-0.020-4.27 0.101-6.415c0.121-2.489 0.688-4.695 2.51-6.517s4.027-2.388 6.517-2.51c2.145-0.121 4.27-0.101 6.415-0.101s4.27-0.020 6.415 0.101c2.489 0.121 4.695 0.688 6.517 2.51s2.388 4.027 2.51 6.517c0.121 2.145 0.101 4.27 0.101 6.415z"></path>
</symbol>
<symbol id="icon-location" viewBox="0 0 32 32">
<title>location</title>
<path d="M20.835 10.461c0-2.808-2.291-5.099-5.099-5.099s-5.099 2.291-5.099 5.099c0 2.808 2.291 5.099 5.099 5.099s5.099-2.291 5.099-5.099zM25.934 10.461c0 1.215-0.139 2.47-0.657 3.565l-7.25 15.416c-0.418 0.876-1.334 1.414-2.291 1.414s-1.872-0.538-2.271-1.414l-7.27-15.416c-0.518-1.095-0.657-2.35-0.657-3.565 0-5.637 4.561-10.198 10.198-10.198s10.198 4.561 10.198 10.198z"></path>
</symbol>
<symbol id="icon-mail" viewBox="0 0 32 32">
<title>mail</title>
<path d="M32 11.355v14.179c0 1.571-1.286 2.857-2.857 2.857h-26.286c-1.571 0-2.857-1.286-2.857-2.857v-14.179c0.536 0.589 1.143 1.107 1.804 1.554 2.964 2.018 5.964 4.036 8.875 6.161 1.5 1.107 3.357 2.464 5.304 2.464h0.036c1.946 0 3.804-1.357 5.304-2.464 2.911-2.107 5.911-4.143 8.893-6.161 0.643-0.446 1.25-0.964 1.786-1.554zM32 6.105c0 2-1.482 3.804-3.054 4.893-2.786 1.929-5.589 3.857-8.357 5.804-1.161 0.804-3.125 2.446-4.571 2.446h-0.036c-1.446 0-3.411-1.643-4.571-2.446-2.768-1.946-5.571-3.875-8.339-5.804-1.268-0.857-3.071-2.875-3.071-4.5 0-1.75 0.946-3.25 2.857-3.25h26.286c1.554 0 2.857 1.286 2.857 2.857z"></path>
</symbol>
<symbol id="icon-phone" viewBox="0 0 32 32">
<title>phone</title>
<path d="M31.848 25.305c0-0.158 0-0.317-0.068-0.475-0.158-0.475-1.267-0.973-1.719-1.199-1.289-0.724-2.601-1.425-3.868-2.171-0.588-0.362-1.312-1.041-2.013-1.041-1.38 0-3.393 4.094-4.614 4.094-0.611 0-1.402-0.565-1.945-0.882-4.117-2.285-6.967-5.135-9.251-9.251-0.317-0.543-0.882-1.335-0.882-1.945 0-1.221 4.094-3.235 4.094-4.614 0-0.701-0.679-1.425-1.040-2.013-0.746-1.267-1.448-2.579-2.171-3.868-0.226-0.452-0.724-1.561-1.199-1.719-0.158-0.068-0.317-0.068-0.475-0.068-0.814 0-2.398 0.362-3.144 0.701-1.108 0.475-1.832 1.742-2.398 2.76-0.724 1.335-1.154 2.692-1.154 4.207 0 2.104 0.86 4.004 1.561 5.926 0.498 1.38 1.108 2.714 1.877 3.958 2.375 3.845 7.012 8.482 10.857 10.857 1.244 0.769 2.579 1.38 3.958 1.877 1.923 0.701 3.823 1.561 5.926 1.561 1.515 0 2.873-0.43 4.207-1.154 1.018-0.565 2.285-1.289 2.76-2.398 0.339-0.746 0.701-2.33 0.701-3.144z"></path>
</symbol>
<symbol id="icon-tw" viewBox="0 0 32 32">
<title>tw</title>
<path d="M25.905 10.059c-0.769 0.344-1.579 0.567-2.449 0.688 0.89-0.526 1.558-1.376 1.882-2.368-0.83 0.486-1.74 0.85-2.712 1.032-0.769-0.83-1.882-1.336-3.096-1.336-2.348 0-4.25 1.902-4.25 4.25 0 0.324 0.020 0.668 0.101 0.971-3.542-0.182-6.679-1.862-8.783-4.452-0.364 0.627-0.587 1.376-0.587 2.145 0 1.477 0.688 2.773 1.842 3.542-0.708-0.020-1.376-0.223-2.024-0.526v0.040c0 2.064 1.558 3.785 3.501 4.169-0.364 0.101-0.648 0.162-1.032 0.162-0.263 0-0.526-0.040-0.789-0.081 0.546 1.68 2.105 2.914 3.967 2.955-1.457 1.133-3.279 1.821-5.282 1.821-0.344 0-0.688-0.020-1.012-0.061 1.882 1.194 4.108 1.902 6.517 1.902 7.812 0 12.102-6.476 12.102-12.102 0-0.182 0-0.364-0.020-0.546 0.83-0.587 1.558-1.336 2.125-2.206zM31.086 6.133v19.429c0 3.218-2.611 5.829-5.829 5.829h-19.429c-3.218 0-5.829-2.611-5.829-5.829v-19.429c0-3.218 2.611-5.829 5.829-5.829h19.429c3.218 0 5.829 2.611 5.829 5.829z"></path>
</symbol>
<symbol id="icon-logo" viewBox="0 0 41 32">
<title>logo</title>
<path d="M26.757 5.905l1.344-4.425c0.035-0.111 0.056-0.227 0.056-0.344 0-0.611-0.384-1.137-1-1.137h-22.079c-2.031 0-3.824 1.318-4.435 3.243-0.010 0.030-0.020 0.061-0.030 0.091l-0.566 1.909c-0.020 0.066-0.030 0.131-0.035 0.197-0.010 0.035-0.010 0.076-0.010 0.116v0.030c0 0.030 0.005 0.056 0.005 0.086l0.015 0.106c0.051 0.525 0.389 0.889 0.945 0.889h24.736c0.48 0 0.909-0.308 1.056-0.763zM39.405 8.441h-22.918c-0.495 0-0.924 0.323-1.066 0.798l-1.318 4.445c-0.030 0.106-0.050 0.212-0.050 0.318 0 0.611 0.5 1.111 1.111 1.111h22.923c0.49 0 0.924-0.323 1.061-0.798l1.323-4.445c0.030-0.101 0.045-0.212 0.045-0.318 0-0.611-0.5-1.111-1.111-1.111zM22.084 16.887h-8.072c-0.49 0-0.924 0.323-1.066 0.793l-1.318 4.45c-0.030 0.101-0.045 0.207-0.045 0.313 0 0.616 0.495 1.111 1.111 1.111h8.072c0.49 0 0.924-0.323 1.066-0.793l1.318-4.45c0.030-0.101 0.045-0.207 0.045-0.313 0-0.616-0.495-1.111-1.111-1.111zM19.513 25.327h-8.072c-0.495 0-0.924 0.323-1.066 0.793l-1.318 4.45c-0.030 0.101-0.050 0.207-0.050 0.318 0 0.611 0.5 1.111 1.111 1.111h5.425c2.066 0 3.884-1.359 4.47-3.339l0.566-1.904c0.030-0.106 0.045-0.212 0.045-0.318 0-0.616-0.495-1.111-1.111-1.111z"></path>
</symbol>
<symbol id="icon-mail2" viewBox="0 0 37 32">
<title>mail2</title>
<path d="M3.419 2.667c-0.265 0-0.488 0.204-0.488 0.444v25.387c0 0.24 0.224 0.444 0.488 0.444h30.181c0.265 0 0.488-0.204 0.488-0.444v-25.387c0-0.24-0.224-0.444-0.488-0.444h-30.181zM3.419 31.609c-1.885 0-3.419-1.396-3.419-3.111v-25.387c0-1.716 1.534-3.111 3.419-3.111h30.181c1.885 0 3.419 1.396 3.419 3.111v25.387c0 1.716-1.534 3.111-3.419 3.111h-30.181z"></path>
<path d="M19.562 16.565l-1.847 0.004 0.922-0.684 0.925 0.68zM34.24 4.3c0.627-0.466 1.55-0.38 2.062 0.19s0.418 1.41-0.209 1.876l-16.525 12.269c-0.537 0.399-1.308 0.4-1.847 0.004l-16.688-12.269c-0.629-0.463-0.727-1.302-0.219-1.875s1.431-0.662 2.061-0.199l15.762 11.588 15.603-11.584z"></path>
</symbol>
<symbol id="icon-menu" viewBox="0 0 40 32">
<title>menu</title>
<path d="M0.565 0h38.4c0.312 0 0.565 0.253 0.565 0.565v4.518c0 0.312-0.253 0.565-0.565 0.565h-38.4c-0.312 0-0.565-0.253-0.565-0.565v-4.518c0-0.312 0.253-0.565 0.565-0.565z"></path>
<path d="M0.565 13.176h38.4c0.312 0 0.565 0.253 0.565 0.565v4.518c0 0.312-0.253 0.565-0.565 0.565h-38.4c-0.312 0-0.565-0.253-0.565-0.565v-4.518c0-0.312 0.253-0.565 0.565-0.565z"></path>
<path d="M15.624 26.353h23.341c0.312 0 0.565 0.253 0.565 0.565v4.518c0 0.312-0.253 0.565-0.565 0.565h-23.341c-0.312 0-0.565-0.253-0.565-0.565v-4.518c0-0.312 0.253-0.565 0.565-0.565z"></path>
</symbol>
<symbol id="icon-share" viewBox="0 0 32 32">
<title>share</title>
<path d="M26.116 20.338c-1.868 0-3.517 0.883-4.593 2.234l-9.987-5.064c0.131-0.483 0.225-0.983 0.225-1.509 0-0.572-0.112-1.111-0.267-1.636l9.943-5.041c1.071 1.413 2.762 2.336 4.681 2.336 3.252 0 5.883-2.608 5.883-5.83 0-3.219-2.631-5.829-5.883-5.829-3.245 0-5.879 2.61-5.879 5.829 0 0.527 0.094 1.028 0.226 1.513l-9.986 5.064c-1.078-1.353-2.729-2.239-4.601-2.239-3.249 0-5.879 2.611-5.879 5.832s2.629 5.83 5.879 5.83c1.923 0 3.612-0.926 4.687-2.341l9.939 5.041c-0.156 0.523-0.269 1.066-0.269 1.64 0 3.22 2.634 5.83 5.879 5.83 3.252 0 5.883-2.61 5.883-5.83 0.002-3.223-2.629-5.832-5.881-5.832z"></path>
</symbol>
<symbol id="icon-arrow" viewBox="0 0 56 32">
<title>arrow</title>
<path d="M25.44 30.849l-24.281-24.138c-1.545-1.535-1.545-4.025 0-5.56 1.544-1.535 4.048-1.535 5.592 0l21.485 21.358 21.484-21.358c1.545-1.535 4.048-1.535 5.592 0s1.545 4.024 0 5.56l-24.281 24.138c-0.772 0.767-1.784 1.151-2.795 1.151s-2.024-0.384-2.796-1.151z"></path>
</symbol>
<symbol id="icon-close" viewBox="0 0 32 32">
<title>close</title>
<path d="M27.094 31.813l-25.738-26.653c-0.175-0.182-0.17-0.471 0.011-0.646l3.244-3.133c0.182-0.175 0.471-0.17 0.646 0.011l25.738 26.653c0.175 0.182 0.17 0.471-0.011 0.646l-3.244 3.133c-0.182 0.175-0.471 0.17-0.646-0.011z"></path>
<path d="M31.386 5.684l-26.653 25.738c-0.182 0.175-0.471 0.17-0.646-0.011l-3.133-3.244c-0.175-0.182-0.17-0.471 0.011-0.646l26.653-25.738c0.182-0.175 0.471-0.17 0.646 0.011l3.133 3.244c0.175 0.182 0.17 0.471-0.011 0.646z"></path>
</symbol>
<symbol id="icon-flag-1" viewBox="0 0 42 32">
<title>flag-1</title>
<path stroke-width="3.2" stroke-miterlimit="4" stroke-linecap="butt" stroke-linejoin="miter" d="M1.6 1.6h38.646v9.108h-38.646v-9.108z"></path>
<path stroke-width="3.2" stroke-miterlimit="4" stroke-linecap="butt" stroke-linejoin="miter" d="M1.6 11.446h38.646v9.108h-38.646v-9.108z"></path>
<path stroke-width="3.2" stroke-miterlimit="4" stroke-linecap="butt" stroke-linejoin="miter" d="M1.6 21.292h38.646v9.108h-38.646v-9.108z"></path>
</symbol>
</defs>
</svg>
